<svg xmlns="http://www.w3.org/2000/svg" xmlns:xlink="http://www.w3.org/1999/xlink" width="500" zoomAndPan="magnify"
    viewBox="0 0 375 374.999991" height="500" preserveAspectRatio="xMidYMid meet" version="1.0">
    <defs>
        <clipPath id="755d7db224">
            <path
                d="M 187.5 0 C 83.945312 0 0 83.945312 0 187.5 C 0 291.054688 83.945312 375 187.5 375 C 291.054688 375 375 291.054688 375 187.5 C 375 83.945312 291.054688 0 187.5 0 Z M 187.5 0 "
                clip-rule="nonzero" />
        </clipPath>
        <clipPath id="0098236249">
            <path d="M 89.25 155 L 285.75 155 L 285.75 293 L 89.25 293 Z M 89.25 155 " clip-rule="nonzero" />
        </clipPath>
    </defs>
    <g clip-path="url(#755d7db224)">
        <rect x="-37.5" width="450" fill="#0a0a0a" y="-37.499999" height="449.999989" fill-opacity="1" />
    </g>
    <path fill="#ffffff"
        d="M 252.992188 135.921875 L 243.167969 142.960938 C 241.691406 143.945312 241.363281 146.074219 242.347656 147.546875 C 243.003906 148.53125 243.984375 148.855469 244.96875 148.855469 C 245.621094 148.855469 246.277344 148.691406 246.769531 148.203125 L 256.59375 141.160156 C 258.066406 140.179688 258.394531 138.050781 257.410156 136.578125 C 256.429688 135.265625 254.464844 134.9375 252.992188 135.921875 Z M 252.992188 135.921875 "
        fill-opacity="1" fill-rule="nonzero" />
    <g clip-path="url(#0098236249)">
        <path fill="#ffffff"
            d="M 280.828125 201.417969 L 280.828125 171.78125 C 280.828125 162.773438 273.621094 155.40625 264.617188 155.40625 L 105.460938 155.40625 C 96.453125 155.40625 89.25 162.773438 89.25 171.78125 L 89.25 276.574219 C 89.25 285.578125 96.453125 292.949219 105.460938 292.949219 L 264.617188 292.949219 C 273.621094 292.949219 280.828125 285.578125 280.828125 276.574219 L 280.828125 246.9375 C 283.609375 246.28125 285.738281 243.664062 285.738281 240.550781 L 285.738281 207.804688 C 285.738281 204.691406 283.609375 202.234375 280.828125 201.417969 Z M 279.1875 207.804688 L 279.1875 240.550781 L 227.285156 240.550781 C 221.878906 240.550781 217.457031 236.128906 217.457031 230.726562 L 217.457031 217.628906 C 217.457031 212.222656 221.878906 207.804688 227.285156 207.804688 Z M 264.617188 286.398438 L 105.460938 286.398438 C 100.058594 286.398438 95.636719 281.976562 95.636719 276.574219 L 95.636719 171.78125 C 95.636719 166.378906 100.058594 161.957031 105.460938 161.957031 L 264.617188 161.957031 C 270.019531 161.957031 274.441406 166.378906 274.441406 171.78125 L 274.441406 201.253906 L 227.285156 201.253906 C 218.277344 201.253906 211.074219 208.621094 211.074219 217.628906 L 211.074219 230.726562 C 211.074219 239.734375 218.277344 247.101562 227.285156 247.101562 L 274.441406 247.101562 L 274.441406 276.574219 C 274.441406 281.976562 270.019531 286.398438 264.617188 286.398438 Z M 264.617188 286.398438 "
            fill-opacity="1" fill-rule="nonzero" />
    </g>
    <path fill="#ffffff"
        d="M 234.160156 224.175781 C 234.160156 224.613281 234.078125 225.03125 233.910156 225.429688 C 233.746094 225.832031 233.507812 226.1875 233.199219 226.492188 C 232.894531 226.800781 232.539062 227.035156 232.140625 227.203125 C 231.738281 227.367188 231.320312 227.453125 230.886719 227.453125 C 230.453125 227.453125 230.035156 227.367188 229.632812 227.203125 C 229.230469 227.035156 228.875 226.800781 228.570312 226.492188 C 228.261719 226.1875 228.027344 225.832031 227.859375 225.429688 C 227.695312 225.03125 227.609375 224.613281 227.609375 224.175781 C 227.609375 223.742188 227.695312 223.324219 227.859375 222.925781 C 228.027344 222.523438 228.261719 222.167969 228.570312 221.863281 C 228.875 221.554688 229.230469 221.316406 229.632812 221.152344 C 230.035156 220.984375 230.453125 220.902344 230.886719 220.902344 C 231.320312 220.902344 231.738281 220.984375 232.140625 221.152344 C 232.539062 221.316406 232.894531 221.554688 233.199219 221.863281 C 233.507812 222.167969 233.746094 222.523438 233.910156 222.925781 C 234.078125 223.324219 234.160156 223.742188 234.160156 224.175781 Z M 234.160156 224.175781 "
        fill-opacity="1" fill-rule="nonzero" />
    <path fill="#ffffff"
        d="M 204.195312 90.566406 C 204.6875 90.074219 205.34375 89.910156 206.160156 89.910156 C 207.144531 89.910156 208.125 90.402344 208.78125 91.21875 L 211.402344 94.824219 L 136.078125 148.855469 L 147.214844 148.855469 L 228.429688 90.566406 C 229.085938 90.074219 229.738281 89.910156 230.394531 89.910156 C 231.375 89.910156 232.359375 90.402344 233.015625 91.21875 L 239.726562 100.390625 L 173.085938 148.855469 L 184.21875 148.855469 L 243.65625 105.792969 L 273.785156 147.21875 C 274.277344 147.875 274.441406 148.691406 274.277344 149.511719 C 274.277344 150.003906 273.949219 150.496094 273.785156 150.820312 C 275.75 151.640625 277.714844 152.949219 279.351562 154.261719 C 280.007812 153.113281 280.664062 151.804688 280.828125 150.496094 C 281.316406 147.875 280.664062 145.253906 279.023438 143.289062 L 238.417969 87.453125 C 235.304688 83.035156 229.085938 82.050781 224.828125 85.324219 L 216.804688 91.054688 L 214.183594 87.453125 C 211.074219 83.035156 204.851562 82.050781 200.59375 85.324219 L 111.683594 148.855469 L 122.816406 148.855469 Z M 204.195312 90.566406 "
        fill-opacity="1" fill-rule="nonzero" />
</svg>