<svg width="195" height="195" viewBox="0 0 195 195" fill="none" xmlns="http://www.w3.org/2000/svg">
    <path fill-rule="evenodd" clip-rule="evenodd"
        d="M97.5024 0C151.346 0 195 43.6491 195 97.4976C195 151.346 151.346 195 97.5024 195C43.654 195 0 151.346 0 97.4976C0 43.6491 43.654 0 97.5024 0ZM86.1374 61.0644C78.9001 57.0621 74 49.3512 74 40.4948C74 27.5208 84.5156 17 97.4896 17C110.464 17 120.984 27.5208 120.984 40.4948C120.984 49.7793 115.596 57.8048 107.777 61.6185C105.317 66.6069 105.392 72.548 108.003 77.4783C115.7 81.3368 120.984 89.2997 120.984 98.4948C120.984 107.779 115.596 115.805 107.777 119.618C105.317 124.607 105.392 130.548 108.003 135.478C115.7 139.337 120.984 147.3 120.984 156.495C120.984 169.469 110.464 179.984 97.4896 179.984C84.5156 179.984 74 169.469 74 156.495C74 147.749 78.7788 140.117 85.8681 136.072C88.9046 130.85 88.9944 124.361 86.1374 119.064C78.9001 115.062 74 107.351 74 98.4948C74 89.7487 78.7788 82.1174 85.8681 78.0725C88.9046 72.8504 88.9944 66.3615 86.1374 61.0644Z"
        fill="white" />
</svg>