<svg width="829" height="302" viewBox="0 0 829 302" fill="none" xmlns="http://www.w3.org/2000/svg">
<g clip-path="url(#clip0_6033_1277)">
<mask id="mask0_6033_1277" style="mask-type:luminance" maskUnits="userSpaceOnUse" x="0" y="0" width="829" height="302">
<path d="M0 2.33496e-05H829V302H0V2.33496e-05Z" fill="white"/>
</mask>
<g mask="url(#mask0_6033_1277)">
<path d="M321.658 209.406C330.214 209.406 337.838 202.392 337.838 192.416C337.838 182.44 330.214 175.27 321.658 175.27C312.946 175.27 305.012 181.973 305.012 192.26V192.727C305.012 202.703 312.635 209.406 321.658 209.406ZM309.679 121.026V156.721C314.968 153.603 321.036 151.889 327.258 151.889C346.394 151.889 364.285 167.165 364.285 192.571C364.285 217.512 347.172 233.254 327.258 233.254C318.858 233.254 311.08 230.292 305.012 225.46V231.383H280.12V121.026H309.679Z" fill="white"/>
</g>
<mask id="mask1_6033_1277" style="mask-type:luminance" maskUnits="userSpaceOnUse" x="0" y="0" width="829" height="302">
<path d="M0 2.33496e-05H829V302H0V2.33496e-05Z" fill="white"/>
</mask>
<g mask="url(#mask1_6033_1277)">
<path d="M432.579 153.604L429.779 178.388C427.757 176.985 424.179 176.05 419.978 176.05C410.644 176.05 403.176 181.505 403.176 192.728V231.384H373.618V153.447H401.465V160.618C407.221 154.227 415.311 151.889 424.489 151.889C428.534 151.889 431.179 152.824 432.579 153.604Z" fill="white"/>
</g>
<mask id="mask2_6033_1277" style="mask-type:luminance" maskUnits="userSpaceOnUse" x="0" y="0" width="829" height="302">
<path d="M0 -7.16799e-06H829V302H0V-7.16799e-06Z" fill="white"/>
</mask>
<g mask="url(#mask2_6033_1277)">
<path d="M492.475 185.869C490.763 176.985 485.318 172.152 478.006 172.152C470.383 172.152 464.938 176.205 463.226 185.869H492.475ZM436.624 192.416C436.624 169.815 452.026 151.734 478.161 151.734C503.209 151.734 517.988 166.853 517.988 190.857C517.988 193.818 517.677 197.716 517.21 199.742H463.226C465.25 208.782 471.472 212.523 478.784 212.523C485.63 212.523 491.23 209.562 492.631 204.574L516.432 211.744C512.388 225.928 497.453 233.41 479.717 233.41C451.871 233.41 436.624 217.512 436.624 192.416Z" fill="white"/>
</g>
<mask id="mask3_6033_1277" style="mask-type:luminance" maskUnits="userSpaceOnUse" x="0" y="0" width="829" height="302">
<path d="M0 -7.16799e-06H829V302H0V-7.16799e-06Z" fill="white"/>
</mask>
<g mask="url(#mask3_6033_1277)">
<path d="M618.329 210.808L629.997 153.448H660.956L638.087 231.383H602.15L589.704 184.778L577.57 231.383H541.633L518.919 153.448H549.722L561.546 210.652L575.391 153.448H604.483L618.329 210.808Z" fill="white"/>
</g>
<mask id="mask4_6033_1277" style="mask-type:luminance" maskUnits="userSpaceOnUse" x="0" y="0" width="829" height="302">
<path d="M0 -7.16799e-06H829V302H0V-7.16799e-06Z" fill="white"/>
</mask>
<g mask="url(#mask4_6033_1277)">
<path d="M668.578 153.448H698.136V231.383H668.578V153.448ZM667.022 128.82C667.022 120.092 674.178 112.61 683.201 112.61C691.913 112.61 699.38 120.092 699.38 128.82C699.38 137.705 691.913 145.031 683.201 145.031C674.178 145.031 667.022 137.705 667.022 128.82Z" fill="white"/>
</g>
<mask id="mask5_6033_1277" style="mask-type:luminance" maskUnits="userSpaceOnUse" x="0" y="0" width="829" height="302">
<path d="M0 -7.16799e-06H829V302H0V-7.16799e-06Z" fill="white"/>
</mask>
<g mask="url(#mask5_6033_1277)">
<path d="M759.274 207.224C763.474 207.224 766.742 205.821 768.763 204.886L771.564 227.175C766.43 230.76 758.029 232.942 750.095 232.942C730.96 232.942 719.914 221.408 719.914 202.392V176.361H707.001V155.786H719.914V129.288H749.472V155.786H771.564V176.361H749.472V196.624C749.472 203.95 752.739 207.224 759.274 207.224Z" fill="white"/>
</g>
<path d="M179.005 166.226C142.949 222.333 219.461 263.772 220.47 264.622C199.083 203.835 231.731 173.62 250.151 130.366C278.085 64.7682 219.598 41.1538 219.598 41.1538C245.786 87.5089 209.853 118.224 179.005 166.226ZM112.015 173.732C85.2719 216.553 142.019 248.18 142.768 248.829C126.906 202.435 151.121 179.375 164.781 146.364C185.5 96.2986 142.121 78.2754 142.121 78.2754C161.545 113.654 134.894 137.096 112.015 173.732ZM61.9854 181.779C44.9219 209.102 81.1292 229.28 81.6074 229.695C71.4867 200.094 86.9368 185.381 95.6528 164.318C108.872 132.374 81.1944 120.874 81.1944 120.874C93.588 143.447 76.5828 158.405 61.9854 181.779Z" fill="url(#paint0_linear_6033_1277)"/>
<path d="M646.211 300L636.847 267.273H644.406L649.823 290.012H650.094L656.071 267.273H662.543L668.504 290.06H668.791L674.208 267.273H681.767L672.403 300H665.659L659.427 278.603H659.171L652.955 300H646.211ZM689.705 300.463C688.139 300.463 686.744 300.192 685.518 299.648C684.293 299.094 683.324 298.279 682.61 297.203C681.907 296.117 681.555 294.764 681.555 293.145C681.555 291.781 681.806 290.636 682.306 289.709C682.807 288.782 683.489 288.036 684.352 287.472C685.215 286.907 686.195 286.481 687.292 286.193C688.4 285.906 689.561 285.703 690.776 285.586C692.203 285.437 693.354 285.298 694.228 285.17C695.101 285.032 695.735 284.83 696.129 284.563C696.523 284.297 696.72 283.903 696.72 283.381V283.285C696.72 282.273 696.401 281.49 695.762 280.936C695.133 280.382 694.238 280.105 693.077 280.105C691.852 280.105 690.877 280.376 690.153 280.92C689.428 281.452 688.949 282.124 688.714 282.933L682.418 282.422C682.738 280.93 683.366 279.641 684.304 278.555C685.241 277.457 686.451 276.616 687.931 276.03C689.423 275.433 691.149 275.135 693.109 275.135C694.473 275.135 695.778 275.295 697.024 275.614C698.281 275.934 699.394 276.429 700.364 277.1C701.344 277.772 702.116 278.635 702.681 279.689C703.246 280.733 703.528 281.985 703.528 283.445V300H697.072V296.596H696.88C696.486 297.363 695.959 298.04 695.298 298.626C694.638 299.201 693.844 299.654 692.917 299.984C691.99 300.304 690.92 300.463 689.705 300.463ZM691.655 295.765C692.656 295.765 693.54 295.568 694.307 295.174C695.074 294.769 695.676 294.226 696.113 293.544C696.55 292.862 696.768 292.09 696.768 291.227V288.622C696.555 288.761 696.262 288.888 695.889 289.006C695.527 289.112 695.117 289.213 694.659 289.309C694.201 289.395 693.743 289.474 693.285 289.549C692.827 289.613 692.411 289.672 692.038 289.725C691.239 289.842 690.541 290.028 689.945 290.284C689.348 290.54 688.885 290.886 688.555 291.323C688.224 291.749 688.059 292.282 688.059 292.921C688.059 293.848 688.395 294.556 689.066 295.046C689.748 295.526 690.611 295.765 691.655 295.765ZM715.617 267.273V300H708.809V267.273H715.617ZM727.878 267.273V300H721.07V267.273H727.878ZM744.517 300.479C741.992 300.479 739.819 299.968 737.997 298.945C736.186 297.912 734.79 296.452 733.81 294.567C732.83 292.67 732.34 290.428 732.34 287.839C732.34 285.314 732.83 283.098 733.81 281.191C734.79 279.284 736.17 277.798 737.949 276.733C739.739 275.668 741.838 275.135 744.245 275.135C745.865 275.135 747.372 275.396 748.768 275.918C750.174 276.429 751.399 277.202 752.443 278.235C753.498 279.268 754.318 280.568 754.904 282.134C755.49 283.69 755.783 285.511 755.783 287.599V289.469H735.057V285.25H749.375C749.375 284.27 749.162 283.402 748.736 282.646C748.31 281.889 747.718 281.298 746.962 280.872C746.216 280.435 745.348 280.217 744.357 280.217C743.324 280.217 742.408 280.456 741.609 280.936C740.82 281.404 740.202 282.038 739.755 282.837C739.307 283.626 739.078 284.505 739.068 285.474V289.485C739.068 290.7 739.291 291.749 739.739 292.633C740.197 293.517 740.842 294.199 741.672 294.679C742.503 295.158 743.489 295.398 744.629 295.398C745.385 295.398 746.078 295.291 746.706 295.078C747.335 294.865 747.873 294.545 748.32 294.119C748.768 293.693 749.109 293.171 749.343 292.553L755.639 292.969C755.32 294.482 754.664 295.803 753.674 296.932C752.693 298.05 751.426 298.924 749.87 299.553C748.326 300.17 746.541 300.479 744.517 300.479ZM773.281 275.455V280.568H758.5V275.455H773.281ZM761.855 269.574H768.663V292.457C768.663 293.086 768.759 293.576 768.951 293.928C769.142 294.268 769.409 294.508 769.75 294.647C770.101 294.785 770.506 294.854 770.964 294.854C771.284 294.854 771.603 294.828 771.923 294.775C772.242 294.711 772.487 294.663 772.658 294.631L773.729 299.696C773.388 299.803 772.908 299.925 772.29 300.064C771.672 300.213 770.921 300.304 770.037 300.336C768.397 300.4 766.958 300.181 765.723 299.68C764.497 299.18 763.544 298.402 762.862 297.347C762.18 296.293 761.845 294.961 761.855 293.352V269.574Z" fill="white"/>
</g>
<defs>
<linearGradient id="paint0_linear_6033_1277" x1="157.563" y1="51.0113" x2="157.563" y2="221.954" gradientUnits="userSpaceOnUse">
<stop stop-color="#E10558"/>
<stop offset="1" stop-color="#FF8408"/>
</linearGradient>
<clipPath id="clip0_6033_1277">
<rect width="829" height="302" fill="white"/>
</clipPath>
</defs>
</svg>
