<svg width="765" height="309" viewBox="0 0 765 309" fill="none" xmlns="http://www.w3.org/2000/svg">
    <path fill-rule="evenodd" clip-rule="evenodd"
        d="M667.502 2C721.346 2 765 45.6491 765 99.4976C765 153.346 721.346 197 667.502 197C613.654 197 570 153.346 570 99.4976C570 45.6491 613.654 2 667.502 2ZM656.137 63.0644C648.9 59.0621 644 51.3512 644 42.4948C644 29.5208 654.516 19 667.49 19C680.464 19 690.984 29.5208 690.984 42.4948C690.984 51.7793 685.596 59.8048 677.777 63.6185C675.317 68.6069 675.392 74.548 678.003 79.4783C685.7 83.3368 690.984 91.2997 690.984 100.495C690.984 109.779 685.596 117.805 677.777 121.618C675.317 126.607 675.392 132.548 678.003 137.478C685.7 141.337 690.984 149.3 690.984 158.495C690.984 171.469 680.464 181.984 667.49 181.984C654.516 181.984 644 171.469 644 158.495C644 149.749 648.779 142.117 655.868 138.072C658.905 132.85 658.994 126.361 656.137 121.064C648.9 117.062 644 109.351 644 100.495C644 91.7487 648.779 84.1174 655.868 80.0725C658.905 74.8504 658.994 68.3615 656.137 63.0644Z"
        fill="#0A0A0A" />
    <path d="M88.9583 52.1445H2.85417V4.64453H160.75V47.1445L70.7292 147.895H161.458V195.395H0V152.165L88.9583 52.1445Z"
        fill="#0A0A0A" />
    <path
        d="M248.62 115.375C250.521 127.292 255.938 136.531 264.87 143.083C273.797 149.625 284.099 152.896 295.766 152.896C303.859 152.896 311.896 150.875 319.87 146.833C327.854 142.781 333.995 137.177 338.286 130.021L378.641 156.458C362.682 185.281 335.292 199.688 296.474 199.688C277.193 199.688 259.63 195.458 243.786 187C227.953 178.542 215.333 166.813 205.932 151.813C196.526 136.813 191.828 119.432 191.828 99.6667C191.828 85.849 194.5 72.9323 199.849 60.9167C205.208 48.8906 212.536 38.2917 221.828 29.125C231.12 19.9479 241.833 12.8021 253.974 7.6875C266.125 2.5625 279.104 0 292.911 0C311.964 0 328.578 4.05208 342.745 12.1458C356.911 20.2448 367.979 31.4375 375.953 45.7292C383.938 60.0208 387.932 76.5729 387.932 95.375C387.932 98.7083 387.932 102.042 387.932 105.375C387.932 108.708 387.693 112.042 387.224 115.375H248.62ZM332.203 78.5833C331.964 73.8229 330.354 68.8854 327.37 63.7708C324.396 58.6458 319.995 54.3021 314.161 50.7292C308.328 47.1615 300.766 45.375 291.474 45.375C283.141 45.375 275.995 47.2813 270.036 51.0833C264.089 54.8906 259.453 59.3542 256.12 64.4792C252.786 69.6042 250.755 74.3073 250.036 78.5833H332.203Z"
        fill="#0A0A0A" />
    <path
        d="M539.376 58.8926C535.084 58.1842 530.673 57.8301 526.146 57.8301C513.532 57.8301 503.417 60.3926 495.792 65.5176C488.167 70.6322 482.688 77.4759 479.355 86.0592C476.021 94.6322 474.355 104.153 474.355 114.622V195.351H418.646V4.60091H474.001V33.8926H474.355C478.173 25.5592 484.782 18.2415 494.188 11.9342C503.589 5.61654 514.959 2.45508 528.292 2.45508C532.818 2.45508 536.511 2.93424 539.376 3.89258V58.8926Z"
        fill="#0A0A0A" />
    <path
        d="M525.729 246.5L541.771 298.458H541.938L558.125 246.5H565.396L581.688 298.771H581.833L597.958 246.5H604.458L585.208 307.771H578L561.646 255.188L545.208 307.771H538.167L519 246.5H525.729Z"
        fill="#0A0A0A" />
    <path
        d="M638.648 283.667V280.855C638.648 274.079 635.096 270.688 628.002 270.688C624.82 270.688 622.294 271.511 620.419 273.146C618.544 274.787 617.075 276.704 616.023 278.896L611.023 276.084C612.481 272.74 614.637 270.1 617.502 268.167C620.377 266.24 623.929 265.271 628.169 265.271C632.596 265.271 636.002 266.136 638.377 267.855C640.752 269.579 642.429 271.594 643.419 273.896C643.887 275.037 644.215 276.303 644.398 277.688C644.575 279.063 644.669 280.094 644.669 280.771V307.771H638.731V300.417H638.648C637.033 302.975 635.064 304.959 632.731 306.376C630.408 307.777 627.689 308.48 624.564 308.48C621.742 308.48 619.294 307.943 617.21 306.876C615.127 305.808 613.492 304.35 612.314 302.501C611.148 300.641 610.564 298.537 610.564 296.188V295.73C610.564 293.428 611.07 291.511 612.085 289.98C613.096 288.438 614.408 287.209 616.023 286.292C617.648 285.376 619.424 284.709 621.356 284.292C623.283 283.876 625.189 283.667 627.064 283.667H638.648ZM638.648 288.688H626.981C625.523 288.688 623.981 288.886 622.356 289.271C620.742 289.662 619.387 290.365 618.294 291.376C617.21 292.391 616.669 293.844 616.669 295.73C616.669 298.079 617.533 299.891 619.273 301.167C621.023 302.449 623.148 303.084 625.648 303.084C628.158 303.084 630.387 302.537 632.335 301.438C634.294 300.344 635.835 298.829 636.96 296.896C638.085 294.969 638.648 292.725 638.648 290.167V288.688Z"
        fill="#0A0A0A" />
    <path d="M664.073 307.771H657.906V244H664.073V307.771Z" fill="#0A0A0A" />
    <path d="M684.028 307.771H677.861V244H684.028V307.771Z" fill="#0A0A0A" />
    <path
        d="M734.731 288.751H700.939C701.09 291.475 701.84 293.917 703.189 296.084C704.549 298.24 706.325 299.949 708.523 301.209C710.715 302.459 713.169 303.084 715.877 303.084C718.96 303.084 721.648 302.292 723.939 300.709C726.231 299.115 727.95 297.115 729.106 294.709L733.648 297.667C731.867 301.167 729.403 303.85 726.252 305.709C723.096 307.558 719.669 308.48 715.96 308.48C711.887 308.48 708.262 307.516 705.085 305.584C701.903 303.657 699.382 301.053 697.523 297.771C695.674 294.48 694.752 290.824 694.752 286.792C694.752 283.99 695.257 281.292 696.273 278.709C697.299 276.126 698.721 273.834 700.544 271.834C702.361 269.824 704.507 268.225 706.981 267.042C709.465 265.865 712.174 265.271 715.106 265.271C719.424 265.271 723.044 266.219 725.96 268.105C728.887 269.98 731.096 272.537 732.585 275.771C734.07 279.011 734.814 282.662 734.814 286.73C734.814 287.094 734.814 287.449 734.814 287.792C734.814 288.126 734.783 288.449 734.731 288.751ZM701.023 283.584H728.627C728.262 279.782 726.924 276.667 724.606 274.251C722.283 271.824 719.117 270.605 715.106 270.605C712.7 270.605 710.492 271.209 708.481 272.417C706.481 273.615 704.825 275.188 703.523 277.146C702.215 279.094 701.382 281.24 701.023 283.584Z"
        fill="#0A0A0A" />
    <path
        d="M759.938 308.083C756.906 308.083 754.531 307.578 752.813 306.563C751.089 305.552 749.875 304.208 749.167 302.542C748.469 300.865 748.125 299.01 748.125 296.979V271.375H740.375V265.979H748.125V253.938H754.146V265.979H764.708V271.375H754.146V296.813C754.146 300.729 756.417 302.688 760.958 302.688C761.635 302.688 762.313 302.661 762.979 302.604C763.656 302.552 764.234 302.474 764.708 302.375V307.458C764.083 307.667 763.271 307.818 762.271 307.917C761.281 308.026 760.505 308.083 759.938 308.083Z"
        fill="#0A0A0A" />
</svg>