<svg width="765" height="200" viewBox="0 0 765 200" fill="none" xmlns="http://www.w3.org/2000/svg">
    <path fill-rule="evenodd" clip-rule="evenodd"
        d="M667.502 2C721.346 2 765 45.6491 765 99.4976C765 153.346 721.346 197 667.502 197C613.654 197 570 153.346 570 99.4976C570 45.6491 613.654 2 667.502 2ZM656.137 63.0644C648.9 59.0621 644 51.3512 644 42.4948C644 29.5208 654.516 19 667.49 19C680.464 19 690.984 29.5208 690.984 42.4948C690.984 51.7793 685.596 59.8048 677.777 63.6185C675.317 68.6069 675.392 74.548 678.003 79.4783C685.7 83.3368 690.984 91.2997 690.984 100.495C690.984 109.779 685.596 117.805 677.777 121.618C675.317 126.607 675.392 132.548 678.003 137.478C685.7 141.337 690.984 149.3 690.984 158.495C690.984 171.469 680.464 181.984 667.49 181.984C654.516 181.984 644 171.469 644 158.495C644 149.749 648.779 142.117 655.868 138.072C658.905 132.85 658.994 126.361 656.137 121.064C648.9 117.062 644 109.351 644 100.495C644 91.7487 648.779 84.1174 655.868 80.0725C658.905 74.8504 658.994 68.3615 656.137 63.0644Z"
        fill="white" />
    <path d="M88.9583 52.1445H2.85417V4.64453H160.75V47.1445L70.7292 147.895H161.458V195.395H0V152.165L88.9583 52.1445Z"
        fill="white" />
    <path
        d="M248.62 115.375C250.521 127.292 255.938 136.531 264.87 143.083C273.797 149.625 284.099 152.896 295.766 152.896C303.859 152.896 311.896 150.875 319.87 146.833C327.854 142.781 333.995 137.177 338.286 130.021L378.641 156.458C362.682 185.281 335.292 199.688 296.474 199.688C277.193 199.688 259.63 195.458 243.786 187C227.953 178.542 215.333 166.813 205.932 151.813C196.526 136.813 191.828 119.432 191.828 99.6667C191.828 85.849 194.5 72.9323 199.849 60.9167C205.208 48.8906 212.536 38.2917 221.828 29.125C231.12 19.9479 241.833 12.8021 253.974 7.6875C266.125 2.5625 279.104 0 292.911 0C311.964 0 328.578 4.05208 342.745 12.1458C356.911 20.2448 367.979 31.4375 375.953 45.7292C383.938 60.0208 387.932 76.5729 387.932 95.375C387.932 98.7083 387.932 102.042 387.932 105.375C387.932 108.708 387.693 112.042 387.224 115.375H248.62ZM332.203 78.5833C331.964 73.8229 330.354 68.8854 327.37 63.7708C324.396 58.6458 319.995 54.3021 314.161 50.7292C308.328 47.1615 300.766 45.375 291.474 45.375C283.141 45.375 275.995 47.2813 270.036 51.0833C264.089 54.8906 259.453 59.3542 256.12 64.4792C252.786 69.6042 250.755 74.3073 250.036 78.5833H332.203Z"
        fill="white" />
    <path
        d="M539.376 58.8926C535.084 58.1842 530.673 57.8301 526.146 57.8301C513.532 57.8301 503.417 60.3926 495.792 65.5176C488.167 70.6322 482.688 77.4759 479.355 86.0592C476.021 94.6322 474.355 104.153 474.355 114.622V195.351H418.646V4.60091H474.001V33.8926H474.355C478.173 25.5592 484.782 18.2415 494.188 11.9342C503.589 5.61654 514.959 2.45508 528.292 2.45508C532.818 2.45508 536.511 2.93424 539.376 3.89258V58.8926Z"
        fill="white" />
</svg>